<?xml version="1.0"?>
<svg xmlns="http://www.w3.org/2000/svg" height="512px" viewBox="0 0 512 512" width="512px" class=""><g><path d="m361 391-30 30v61l30 30h151v-121zm0 0" fill="#737ee6" data-original="#737EE6" class="" style="fill:#EC6E08" data-old_color="#737ee6"/><path d="m0 361v151h151l30-30v-91l-30-30zm0 0" fill="#f27281" data-original="#F27281" class="" style="fill:#9FA4A8" data-old_color="#f27281"/><path d="m151 301h210v211h-210zm0 0" fill="#fdbf00" data-original="#FDBF00" class=""/><path d="m256 301h105v211h-105zm0 0" fill="#ff9100" data-original="#FF9100" class=""/><path d="m316 151h-7.851562v-30h7.851562c24.8125 0 45-21.1875 45-46v-15h-45v-30h75v45c0 41.351562-33.648438 76-75 76zm0 0" fill="#ff9100" data-original="#FF9100" class=""/><path d="m203.851562 151h-7.851562c-41.351562 0-75-34.648438-75-76v-45h75v30h-45v15c0 24.8125 20.1875 46 45 46h7.851562zm0 0" fill="#fdbf00" data-original="#FDBF00" class=""/><path d="m181 0v106c0 11.699219 2.699219 22.800781 7.800781 33 6 12.300781 15.601563 24 25.199219 35.097656 13.199219 15.902344 27 32.101563 27 45.902344v36h30v-36c0-13.800781 13.800781-30 27-45.902344 9.597656-11.097656 19.199219-22.796875 25.199219-34.796875 5.101562-10.5 7.800781-21.601562 7.800781-33.300781v-106zm0 0" fill="#ffda2d" data-original="#FFDA2D" class=""/><path d="m271 256h-15v-256h75v106c0 11.699219-2.699219 22.800781-7.800781 33.300781-6 12-15.601563 23.699219-25.199219 34.796875-13.199219 15.902344-27 32.101563-27 45.902344zm0 0" fill="#fdbf00" data-original="#FDBF00" class=""/><path d="m474.304688 305.335938-56.308594-29.589844-56.277344 29.589844 10.75-62.679688-45.527344-44.386719 62.917969-9.140625 28.136719-57.027344 28.140625 57.027344 63.945312 9.140625-46.558593 44.386719zm0 0" fill="#ff9100" data-original="#FF9100" class=""/><path d="m150.28125 305.335938-56.277344-29.589844-56.308594 29.589844 10.78125-62.679688-46.558593-44.386719 63.945312-9.140625 28.140625-57.023437 28.140625 57.023437 62.914063 9.140625-45.527344 44.386719zm0 0" fill="#fdbf00" data-original="#FDBF00" class=""/><path d="m301 421v30h-90v-30h30v-30h-30v-30h60v60zm0 0" fill="#596c76" data-original="#596C76" class="active-path" style="fill:#374957" data-old_color="#596c76"/><path d="m211 241h90v30h-90zm0 0" fill="#fdbf00" data-original="#FDBF00" class=""/><path d="m256 241h45v30h-45zm0 0" fill="#ff9100" data-original="#FF9100" class=""/><path d="m271 421h30v30h-45v-90h15zm0 0" fill="#465a61" data-original="#465A61" class="" style="fill:#465A61"/></g> </svg>
